<svg xmlns="http://www.w3.org/2000/svg" viewBox="0 0 512 512">
  <defs>
    <linearGradient id="bg" x1="0%" y1="0%" x2="100%" y2="100%">
      <stop offset="0%" stop-color="#2d3748"/>
      <stop offset="100%" stop-color="#4a5568"/>
    </linearGradient>
  </defs>
  <rect width="512" height="512" rx="112" fill="url(#bg)"/>
  <g transform="translate(96 96) scale(13.33)" fill="none" stroke="#ffffff" stroke-width="1.5" stroke-linecap="round" stroke-linejoin="round">
    <path d="M19 7V4a1 1 0 0 0-1-1H5a2 2 0 0 0 0 4h15a1 1 0 0 1 1 1v4h-3a2 2 0 0 0 0 4h3a1 1 0 0 1 1 1v2a1 1 0 0 1-1 1H5a2 2 0 0 1-2-2V6c0-1.1.9-2 2-2"/>
    <path d="M18 12h4v4h-4a2 2 0 0 1 0-4z"/>
  </g>
</svg>